<?xml version="1.0" encoding="utf-8"?>
<!-- Generator: Adobe Illustrator 25.1.0, SVG Export Plug-In . SVG Version: 6.00 Build 0)  -->
<svg version="1.1" id="Capa_1" xmlns="http://www.w3.org/2000/svg" xmlns:xlink="http://www.w3.org/1999/xlink" x="0px" y="0px"
	 viewBox="0 0 512 512" style="enable-background:new 0 0 512 512;" xml:space="preserve">
<g>
	<path d="M307.5,106.2c0,4.1,3.4,7.5,7.5,7.5h90.2c4.1,0,7.5-3.4,7.5-7.5s-3.4-7.5-7.5-7.5H315C310.9,98.7,307.5,102.1,307.5,106.2z
		"/>
	<path d="M275.6,66.2c0,4.1,3.4,7.5,7.5,7.5h122.1c4.1,0,7.5-3.4,7.5-7.5s-3.4-7.5-7.5-7.5H283.1C279,58.7,275.6,62.1,275.6,66.2z"
		/>
	<path d="M405.3,131.8h-38.5c-4.1,0-7.5,3.4-7.5,7.5s3.4,7.5,7.5,7.5h38.5c4.1,0,7.5-3.4,7.5-7.5S409.4,131.8,405.3,131.8z"/>
	<path d="M395.3,453.8c-2.2,0-3.6-1.6-7-6.6c-3.5-5.3-8.8-13.4-19.5-13.4s-16,8-19.5,13.4c-3.4,5.1-4.8,6.6-7,6.6
		c-2.2,0-3.6-1.6-7-6.6c-3.5-5.3-8.8-13.4-19.5-13.4s-16,8-19.5,13.4c-3.4,5.1-4.8,6.6-7,6.6c-4.1,0-7.5,3.4-7.5,7.5
		s3.4,7.5,7.5,7.5c10.6,0,16-8,19.5-13.4c3.4-5.1,4.8-6.6,7-6.6s3.6,1.6,7,6.6c3.5,5.3,8.8,13.4,19.5,13.4c10.6,0,16-8,19.5-13.4
		c3.4-5.1,4.8-6.6,7-6.6s3.6,1.6,7,6.6c3.5,5.3,8.8,13.4,19.5,13.4c4.1,0,7.5-3.4,7.5-7.5S399.4,453.8,395.3,453.8L395.3,453.8z"/>
	<path d="M450.2,380c-4.1,0-7.5,3.4-7.5,7.5v92.2c0,9.5-7.7,17.2-17.2,17.2h-339c-9.5,0-17.2-7.7-17.2-17.2V32.2
		C69.3,22.7,77,15,86.5,15h52.3c4.1,0,7.5-3.4,7.5-7.5S143,0,138.8,0H86.5C68.7,0,54.3,14.5,54.3,32.2v447.5
		c0,17.8,14.5,32.2,32.2,32.2h339c17.8,0,32.2-14.5,32.2-32.2v-92.2C457.7,383.4,454.4,380,450.2,380z"/>
	<path d="M425.5,0H168.8c-4.1,0-7.5,3.4-7.5,7.5s3.4,7.5,7.5,7.5h256.7c9.5,0,17.2,7.7,17.2,17.2v325.3c0,4.1,3.4,7.5,7.5,7.5
		s7.5-3.4,7.5-7.5V32.2C457.7,14.5,443.3,0,425.5,0z"/>
	<path d="M109.9,221.4v155.8c0,9.7,7.9,17.6,17.6,17.6h73.8c4.1,0,7.5-3.4,7.5-7.5s-3.4-7.5-7.5-7.5h-73.8c-1.4,0-2.6-1.2-2.6-2.6
		v-38.8h189.5v41.5h-83.1c-4.1,0-7.5,3.4-7.5,7.5s3.4,7.5,7.5,7.5h153.2c9.7,0,17.6-7.9,17.6-17.6V221.4c0-9.7-7.9-17.6-17.6-17.6
		h-257C117.8,203.7,109.9,211.6,109.9,221.4L109.9,221.4z M127.5,218.7h186.9v41.5H124.9v-38.8C124.9,219.9,126.1,218.7,127.5,218.7
		L127.5,218.7z M124.9,323.3v-48.1h189.5v48.1H124.9z M387.1,323.3h-57.7v-48.1h57.7V323.3z M384.5,379.8h-55.1v-41.5h57.7v38.8
		C387.1,378.6,385.9,379.8,384.5,379.8z M387.1,221.4v38.8h-57.7v-41.5h55.1C385.9,218.7,387.1,219.9,387.1,221.4L387.1,221.4z"/>
</g>
<path d="M109.9,66.2c0,4.1,3.4,7.5,7.5,7.5h66.7c4.1,0,7.5-3.4,7.5-7.5s-3.4-7.5-7.5-7.5h-66.7C113.3,58.7,109.9,62.1,109.9,66.2z"
	/>
</svg>
