<svg width="19" height="19" viewBox="0 0 19 19" fill="none" xmlns="http://www.w3.org/2000/svg">
<path d="M9.5 1C4.80545 1 1 4.80545 1 9.5C1 14.1946 4.80545 18 9.5 18C14.1946 18 18 14.1946 18 9.5C18 4.80545 14.1946 1 9.5 1Z" stroke="black" stroke-width="1.8" stroke-linecap="round" stroke-linejoin="round"/>
<path d="M2.93066 14.8937C2.93066 14.8937 4.82531 12.4746 9.50031 12.4746C14.1753 12.4746 16.0708 14.8937 16.0708 14.8937" stroke="black" stroke-width="1.8" stroke-linecap="round" stroke-linejoin="round"/>
<path d="M9.49824 9.4999C10.1745 9.4999 10.8231 9.23124 11.3014 8.75302C11.7796 8.27481 12.0482 7.6262 12.0482 6.9499C12.0482 6.2736 11.7796 5.625 11.3014 5.14678C10.8231 4.66856 10.1745 4.3999 9.49824 4.3999C8.82194 4.3999 8.17334 4.66856 7.69512 5.14678C7.2169 5.625 6.94824 6.2736 6.94824 6.9499C6.94824 7.6262 7.2169 8.27481 7.69512 8.75302C8.17334 9.23124 8.82194 9.4999 9.49824 9.4999V9.4999Z" stroke="black" stroke-width="1.8" stroke-linecap="round" stroke-linejoin="round"/>
</svg>
