<?xml version="1.0" encoding="utf-8"?>
<!-- Generator: Adobe Illustrator 25.1.0, SVG Export Plug-In . SVG Version: 6.00 Build 0)  -->
<svg version="1.1" id="Capa_1" xmlns="http://www.w3.org/2000/svg" xmlns:xlink="http://www.w3.org/1999/xlink" x="0px" y="0px"
	 viewBox="0 0 512 512" style="enable-background:new 0 0 512 512;" xml:space="preserve">
<style type="text/css">
	.st0{fill:#FFFFFF;}
</style>
<path class="st0" d="M229.3,174.9c0,61.8,50.2,112,112,112s112-50.2,112-112s-50.2-112-112-112S229.3,113.2,229.3,174.9z
	 M436.3,174.9c0,52.3-42.6,94.9-94.9,94.9s-94.9-42.6-94.9-94.9S289,80,341.3,80S436.3,122.6,436.3,174.9z M341.3,117.3
	c4.7,0,8.5,3.8,8.5,8.5v3.6c9.9,3.5,17.1,13,17.1,24.1c0,4.7-3.8,8.5-8.5,8.5c-4.7,0-8.5-3.8-8.5-8.5c0-4.7-3.8-8.5-8.5-8.5
	s-8.5,3.8-8.5,8.5v3.5c0,3.8,2.4,7,6,8.1l10.2,3.2c10.7,3.4,18,13.2,18,24.4v3.5c0,12.3-8.7,22.6-20.3,25v2.7c0,4.7-3.8,8.5-8.5,8.5
	c-4.7,0-8.5-3.8-8.5-8.5v-5c-8.2-4.3-13.9-12.9-13.9-22.7c0-4.7,3.8-8.5,8.5-8.5c4.7,0,8.5,3.8,8.5,8.5c0,4.7,3.8,8.5,8.5,8.5
	s8.5-3.8,8.5-8.5v-3.5c0-3.8-2.4-7-6-8.1l-10.2-3.2c-10.7-3.4-18-13.2-18-24.4v-3.5c0-11.1,7.1-20.6,17.1-24.1v-3.6
	C332.8,121.2,336.6,117.3,341.3,117.3z M480,343.5v108.8c0,32.9-26.8,59.7-59.7,59.7H91.7C58.8,512,32,485.2,32,452.3V34.1
	C32,15.3,47.3,0,66.1,0h277.3c18.8,0,34.1,15.3,34.1,34.1c0,4.7-3.8,8.5-8.5,8.5c-4.7,0-8.5-3.8-8.5-8.5c0-9.4-7.7-17.1-17.1-17.1
	H66.1c-9.4,0-17.1,7.7-17.1,17.1v418.1c0,23.5,19.1,42.7,42.7,42.7h286.8c-11.1-10.9-18-26-18-42.7V318.9c0-4.7,3.8-8.5,8.5-8.5
	c4.7,0,8.5,3.8,8.5,8.5v133.3c0,23.5,19.1,42.7,42.7,42.7c23.5,0,42.7-19.1,42.7-42.7V343.5c0-9.4-7.7-17.1-17.1-17.1h-36.3
	c-4.7,0-8.5-3.8-8.5-8.5s3.8-8.5,8.5-8.5h36.3C464.7,309.3,480,324.6,480,343.5z M106.7,229.3c0-4.7,3.8-8.5,8.5-8.5h72.5
	c4.7,0,8.5,3.8,8.5,8.5c0,4.7-3.8,8.5-8.5,8.5h-72.5C110.5,237.9,106.7,234,106.7,229.3z M106.7,133.3c0-4.7,3.8-8.5,8.5-8.5h72.5
	c4.7,0,8.5,3.8,8.5,8.5c0,4.7-3.8,8.5-8.5,8.5h-72.5C110.5,141.9,106.7,138,106.7,133.3z M302.9,325.3c0,4.7-3.8,8.5-8.5,8.5H115.2
	c-4.7,0-8.5-3.8-8.5-8.5s3.8-8.5,8.5-8.5h179.2C299.1,316.8,302.9,320.6,302.9,325.3z M302.9,414.9c0,4.7-3.8,8.5-8.5,8.5H115.2
	c-4.7,0-8.5-3.8-8.5-8.5c0-4.7,3.8-8.5,8.5-8.5h179.2C299.1,406.4,302.9,410.2,302.9,414.9z"/>
</svg>
